<svg width="14" height="17" viewBox="0 0 14 17" fill="none" xmlns="http://www.w3.org/2000/svg">
<path d="M13.0729 5.68253C12.552 6.00144 12.1206 6.44728 11.8189 6.97834C11.5172 7.50941 11.3553 8.10832 11.3481 8.71903C11.3502 9.40639 11.5538 10.078 11.9338 10.6508C12.3138 11.2236 12.8535 11.6723 13.486 11.9413C13.2366 12.7459 12.8676 13.5084 12.3912 14.2031C11.7096 15.1843 10.9969 16.1654 9.9125 16.1654C8.8281 16.1654 8.5492 15.5354 7.2995 15.5354C6.0808 15.5354 5.647 16.1861 4.6555 16.1861C3.664 16.1861 2.9721 15.2772 2.1768 14.1618C1.12627 12.5993 0.54891 10.7668 0.514 8.88423C0.514 5.78583 2.528 4.14373 4.5109 4.14373C5.5644 4.14373 6.4423 4.83563 7.1033 4.83563C7.7333 4.83563 8.7145 4.10233 9.9125 4.10233C10.5285 4.08644 11.1389 4.22225 11.69 4.49781C12.2411 4.77337 12.716 5.18023 13.0729 5.68253ZM9.3445 2.79073C9.8726 2.16949 10.1715 1.38586 10.1914 0.570732C10.1923 0.463274 10.1819 0.35602 10.1604 0.250732C9.25326 0.339346 8.4144 0.771707 7.8159 1.45913C7.28271 2.05562 6.9725 2.81832 6.938 3.61763C6.9384 3.71484 6.94879 3.81175 6.969 3.90683C7.04051 3.92035 7.11312 3.92728 7.1859 3.92753C7.60397 3.89427 8.01092 3.77634 8.382 3.58091C8.75308 3.38549 9.08055 3.11665 9.3445 2.79073Z" fill="white"/>
</svg>
