<svg width="8" height="11" viewBox="0 0 8 11" fill="none" xmlns="http://www.w3.org/2000/svg">
<path d="M1.76416 11C1.55083 11 1.36847 10.926 1.21708 10.7781C1.06569 10.6301 0.98999 10.4495 0.98999 10.2362C0.98999 10.0228 1.06913 9.83703 1.2274 9.67876L5.39758 5.5189L1.2274 1.35905C1.06913 1.20077 0.98999 1.01497 0.98999 0.801646C0.98999 0.588321 1.06569 0.407681 1.21708 0.259729C1.36847 0.111777 1.55083 0.0378017 1.76416 0.0378017C1.96372 0.0378017 2.14264 0.110057 2.30091 0.254568L7.00784 4.94086C7.173 5.09225 7.25558 5.28493 7.25558 5.5189C7.25558 5.73911 7.173 5.93179 7.00784 6.09695L2.30091 10.7832C2.1564 10.9277 1.97748 11 1.76416 11Z" fill="#2997FF"/>
</svg>
