<svg width="14" height="15" viewBox="0 0 14 15" fill="none" xmlns="http://www.w3.org/2000/svg">
<path d="M11.3535 3.02828H10.333C10.2236 2.21726 9.82728 1.47228 9.21582 0.92837C8.60436 0.384462 7.81827 0.0776246 7.00003 0.0634766C6.18179 0.0776246 5.3957 0.384462 4.78424 0.92837C4.17278 1.47228 3.77643 2.21726 3.66703 3.02828H2.64703C2.08582 3.02865 1.54769 3.2517 1.15078 3.64846C0.753865 4.04522 0.530612 4.58327 0.530029 5.14448V12.86C0.530532 13.4211 0.753634 13.9591 1.15038 14.356C1.54712 14.7528 2.08509 14.976 2.64623 14.9767H11.3532C11.9145 14.9762 12.4526 14.753 12.8495 14.3562C13.2463 13.9593 13.4695 13.4212 13.47 12.86V5.14448C13.4694 4.58335 13.2463 4.04538 12.8495 3.64863C12.4527 3.25189 11.9147 3.02878 11.3535 3.02828ZM7.00003 1.16308C7.52744 1.17454 8.03515 1.36565 8.43921 1.7048C8.84328 2.04395 9.11951 2.51084 9.22223 3.02828H4.77783C4.88055 2.51084 5.15678 2.04395 5.56085 1.7048C5.96491 1.36565 6.47262 1.17454 7.00003 1.16308ZM12.37 12.86C12.3697 13.1296 12.2626 13.388 12.072 13.5787C11.8814 13.7693 11.623 13.8767 11.3534 13.8771H2.64653C2.37697 13.8766 2.11859 13.7693 1.92804 13.5786C1.73749 13.388 1.63032 13.1295 1.63003 12.86V5.14448C1.63035 4.87496 1.73755 4.61656 1.92814 4.42598C2.11872 4.2354 2.37711 4.12819 2.64663 4.12788H11.3536C11.6231 4.12825 11.8815 4.23548 12.072 4.42605C12.2625 4.61663 12.3697 4.87499 12.37 5.14448V12.86Z" fill="#DADADA"/>
</svg>
